<mxfile host="app.diagrams.net" agent="Mozilla/5.0 (Windows NT 10.0; Win64; x64; rv:134.0) Gecko/20100101 Firefox/134.0" version="26.0.5">
  <diagram name="Strona-1" id="qWpu0B_rZi-Rhaqv1UP4">
    <mxGraphModel dx="2022" dy="652" grid="1" gridSize="10" guides="1" tooltips="1" connect="1" arrows="1" fold="1" page="1" pageScale="1" pageWidth="827" pageHeight="1169" math="0" shadow="0">
      <root>
        <mxCell id="0" />
        <mxCell id="1" parent="0" />
        <mxCell id="qf5zw00lPG9wHRLytDWA-1" value="" style="whiteSpace=wrap;html=1;aspect=fixed;" vertex="1" parent="1">
          <mxGeometry x="80" y="210" width="480" height="480" as="geometry" />
        </mxCell>
        <mxCell id="qf5zw00lPG9wHRLytDWA-2" value="&lt;font face=&quot;Verdana&quot;&gt;Platforma do wymiany przedmiotów&lt;/font&gt;" style="text;html=1;align=center;verticalAlign=middle;resizable=0;points=[];autosize=1;strokeColor=none;fillColor=none;" vertex="1" parent="1">
          <mxGeometry x="160" y="210" width="250" height="30" as="geometry" />
        </mxCell>
        <mxCell id="qf5zw00lPG9wHRLytDWA-10" style="rounded=0;orthogonalLoop=1;jettySize=auto;html=1;exitX=1;exitY=0.3333333333333333;exitDx=0;exitDy=0;exitPerimeter=0;entryX=0;entryY=0.5;entryDx=0;entryDy=0;endArrow=none;endFill=0;" edge="1" parent="1" source="qf5zw00lPG9wHRLytDWA-3" target="qf5zw00lPG9wHRLytDWA-7">
          <mxGeometry relative="1" as="geometry" />
        </mxCell>
        <mxCell id="qf5zw00lPG9wHRLytDWA-3" value="Użytkownik" style="shape=umlActor;verticalLabelPosition=bottom;verticalAlign=top;html=1;outlineConnect=0;" vertex="1" parent="1">
          <mxGeometry x="-50" y="270" width="30" height="60" as="geometry" />
        </mxCell>
        <mxCell id="qf5zw00lPG9wHRLytDWA-6" value="Administator" style="shape=umlActor;verticalLabelPosition=bottom;verticalAlign=top;html=1;outlineConnect=0;" vertex="1" parent="1">
          <mxGeometry x="660" y="290" width="30" height="60" as="geometry" />
        </mxCell>
        <mxCell id="qf5zw00lPG9wHRLytDWA-7" value="Dodaj ofertę" style="ellipse;whiteSpace=wrap;html=1;" vertex="1" parent="1">
          <mxGeometry x="100" y="340" width="100" height="60" as="geometry" />
        </mxCell>
        <mxCell id="qf5zw00lPG9wHRLytDWA-9" value="Przeglądaj oferty" style="ellipse;whiteSpace=wrap;html=1;" vertex="1" parent="1">
          <mxGeometry x="100" y="470" width="100" height="60" as="geometry" />
        </mxCell>
        <mxCell id="qf5zw00lPG9wHRLytDWA-11" style="rounded=0;orthogonalLoop=1;jettySize=auto;html=1;exitX=1;exitY=0.3333333333333333;exitDx=0;exitDy=0;exitPerimeter=0;entryX=0;entryY=0.5;entryDx=0;entryDy=0;endArrow=none;endFill=0;" edge="1" parent="1" source="qf5zw00lPG9wHRLytDWA-3" target="qf5zw00lPG9wHRLytDWA-9">
          <mxGeometry relative="1" as="geometry">
            <mxPoint x="10" y="340" as="sourcePoint" />
            <mxPoint x="130" y="330" as="targetPoint" />
          </mxGeometry>
        </mxCell>
        <mxCell id="qf5zw00lPG9wHRLytDWA-14" value="Wybierz ofertę" style="ellipse;whiteSpace=wrap;html=1;" vertex="1" parent="1">
          <mxGeometry x="110" y="585" width="100" height="60" as="geometry" />
        </mxCell>
        <mxCell id="qf5zw00lPG9wHRLytDWA-15" value="&amp;lt;&amp;lt;extend&amp;gt;&amp;gt;" style="endArrow=blockThin;endSize=16;endFill=1;html=1;rounded=0;dashed=1;exitX=0.5;exitY=0;exitDx=0;exitDy=0;entryX=0.571;entryY=1.034;entryDx=0;entryDy=0;entryPerimeter=0;" edge="1" parent="1" source="qf5zw00lPG9wHRLytDWA-14" target="qf5zw00lPG9wHRLytDWA-9">
          <mxGeometry x="-0.0016" width="160" relative="1" as="geometry">
            <mxPoint x="-100" y="489.65999999999997" as="sourcePoint" />
            <mxPoint x="60" y="489.65999999999997" as="targetPoint" />
            <mxPoint as="offset" />
          </mxGeometry>
        </mxCell>
        <mxCell id="qf5zw00lPG9wHRLytDWA-16" value="Negocjuj ofertę" style="ellipse;whiteSpace=wrap;html=1;" vertex="1" parent="1">
          <mxGeometry x="320" y="585" width="100" height="60" as="geometry" />
        </mxCell>
        <mxCell id="qf5zw00lPG9wHRLytDWA-18" value="&amp;lt;&amp;lt;extend&amp;gt;&amp;gt;" style="endArrow=blockThin;endSize=16;endFill=1;html=1;rounded=0;dashed=1;exitX=0.5;exitY=0;exitDx=0;exitDy=0;entryX=0.5;entryY=1;entryDx=0;entryDy=0;" edge="1" parent="1" source="qf5zw00lPG9wHRLytDWA-9" target="qf5zw00lPG9wHRLytDWA-7">
          <mxGeometry width="160" relative="1" as="geometry">
            <mxPoint x="160" y="470" as="sourcePoint" />
            <mxPoint x="154" y="537" as="targetPoint" />
          </mxGeometry>
        </mxCell>
        <mxCell id="qf5zw00lPG9wHRLytDWA-19" value="Moderuj platformę" style="ellipse;whiteSpace=wrap;html=1;" vertex="1" parent="1">
          <mxGeometry x="350" y="380" width="100" height="60" as="geometry" />
        </mxCell>
        <mxCell id="qf5zw00lPG9wHRLytDWA-20" style="rounded=0;orthogonalLoop=1;jettySize=auto;html=1;exitX=0.986;exitY=0.413;exitDx=0;exitDy=0;exitPerimeter=0;endArrow=none;endFill=0;entryX=0;entryY=0.3333333333333333;entryDx=0;entryDy=0;entryPerimeter=0;" edge="1" parent="1" source="qf5zw00lPG9wHRLytDWA-19" target="qf5zw00lPG9wHRLytDWA-6">
          <mxGeometry relative="1" as="geometry">
            <mxPoint x="10" y="340" as="sourcePoint" />
            <mxPoint x="570" y="330" as="targetPoint" />
          </mxGeometry>
        </mxCell>
        <mxCell id="qf5zw00lPG9wHRLytDWA-23" value="Zaloguj się" style="ellipse;whiteSpace=wrap;html=1;" vertex="1" parent="1">
          <mxGeometry x="220" y="270" width="100" height="60" as="geometry" />
        </mxCell>
        <mxCell id="qf5zw00lPG9wHRLytDWA-24" style="rounded=0;orthogonalLoop=1;jettySize=auto;html=1;exitX=1;exitY=0.5;exitDx=0;exitDy=0;endArrow=none;endFill=0;entryX=0;entryY=0.3333333333333333;entryDx=0;entryDy=0;entryPerimeter=0;" edge="1" parent="1" source="qf5zw00lPG9wHRLytDWA-23" target="qf5zw00lPG9wHRLytDWA-6">
          <mxGeometry relative="1" as="geometry">
            <mxPoint x="473" y="345" as="sourcePoint" />
            <mxPoint x="580" y="340" as="targetPoint" />
          </mxGeometry>
        </mxCell>
        <mxCell id="qf5zw00lPG9wHRLytDWA-25" style="rounded=0;orthogonalLoop=1;jettySize=auto;html=1;exitX=1;exitY=0.3333333333333333;exitDx=0;exitDy=0;exitPerimeter=0;entryX=0;entryY=0.5;entryDx=0;entryDy=0;endArrow=none;endFill=0;" edge="1" parent="1" source="qf5zw00lPG9wHRLytDWA-3" target="qf5zw00lPG9wHRLytDWA-23">
          <mxGeometry relative="1" as="geometry">
            <mxPoint y="250" as="sourcePoint" />
            <mxPoint x="130" y="330" as="targetPoint" />
          </mxGeometry>
        </mxCell>
        <mxCell id="qf5zw00lPG9wHRLytDWA-26" value="&lt;font face=&quot;Verdana&quot;&gt;Zakceptuj wymianę&lt;br&gt;&lt;/font&gt;" style="ellipse;whiteSpace=wrap;html=1;" vertex="1" parent="1">
          <mxGeometry x="310" y="490" width="100" height="60" as="geometry" />
        </mxCell>
        <mxCell id="qf5zw00lPG9wHRLytDWA-27" value="&amp;lt;&amp;lt;extend&amp;gt;&amp;gt;" style="endArrow=blockThin;endSize=16;endFill=1;html=1;rounded=0;dashed=1;exitX=0.016;exitY=0.643;exitDx=0;exitDy=0;exitPerimeter=0;entryX=0.912;entryY=0.186;entryDx=0;entryDy=0;entryPerimeter=0;" edge="1" parent="1" source="qf5zw00lPG9wHRLytDWA-26" target="qf5zw00lPG9wHRLytDWA-14">
          <mxGeometry width="160" relative="1" as="geometry">
            <mxPoint x="210" y="565" as="sourcePoint" />
            <mxPoint x="293" y="569" as="targetPoint" />
          </mxGeometry>
        </mxCell>
        <mxCell id="qf5zw00lPG9wHRLytDWA-28" value="&amp;lt;&amp;lt;include&amp;gt;&amp;gt;" style="endArrow=blockThin;endSize=16;endFill=1;html=1;rounded=0;dashed=1;entryX=0.109;entryY=0.764;entryDx=0;entryDy=0;exitX=0.923;exitY=0.201;exitDx=0;exitDy=0;exitPerimeter=0;entryPerimeter=0;" edge="1" parent="1" source="qf5zw00lPG9wHRLytDWA-7" target="qf5zw00lPG9wHRLytDWA-23">
          <mxGeometry width="160" relative="1" as="geometry">
            <mxPoint x="211" y="347" as="sourcePoint" />
            <mxPoint x="374" y="350" as="targetPoint" />
          </mxGeometry>
        </mxCell>
        <mxCell id="qf5zw00lPG9wHRLytDWA-29" value="&amp;lt;&amp;lt;include&amp;gt;&amp;gt;" style="endArrow=blockThin;endSize=16;endFill=1;html=1;rounded=0;dashed=1;entryX=0.814;entryY=0.913;entryDx=0;entryDy=0;exitX=0.117;exitY=0.229;exitDx=0;exitDy=0;exitPerimeter=0;entryPerimeter=0;" edge="1" parent="1" source="qf5zw00lPG9wHRLytDWA-19" target="qf5zw00lPG9wHRLytDWA-23">
          <mxGeometry width="160" relative="1" as="geometry">
            <mxPoint x="202" y="332" as="sourcePoint" />
            <mxPoint x="256" y="296" as="targetPoint" />
          </mxGeometry>
        </mxCell>
        <mxCell id="qf5zw00lPG9wHRLytDWA-30" value="Autoryzuj użytkownika" style="ellipse;whiteSpace=wrap;html=1;" vertex="1" parent="1">
          <mxGeometry x="430" y="220" width="100" height="60" as="geometry" />
        </mxCell>
        <mxCell id="qf5zw00lPG9wHRLytDWA-31" value="&amp;lt;&amp;lt;extend&amp;gt;&amp;gt;" style="endArrow=blockThin;endSize=16;endFill=1;html=1;rounded=0;dashed=1;entryX=0.964;entryY=0.333;entryDx=0;entryDy=0;exitX=0;exitY=0.5;exitDx=0;exitDy=0;entryPerimeter=0;" edge="1" parent="1" source="qf5zw00lPG9wHRLytDWA-30" target="qf5zw00lPG9wHRLytDWA-23">
          <mxGeometry width="160" relative="1" as="geometry">
            <mxPoint x="212" y="608" as="sourcePoint" />
            <mxPoint x="327" y="544" as="targetPoint" />
          </mxGeometry>
        </mxCell>
        <mxCell id="qf5zw00lPG9wHRLytDWA-32" value="&amp;lt;&amp;lt;extend&amp;gt;&amp;gt;" style="endArrow=blockThin;endSize=16;endFill=1;html=1;rounded=0;dashed=1;exitX=0.012;exitY=0.577;exitDx=0;exitDy=0;exitPerimeter=0;entryX=1;entryY=0.5;entryDx=0;entryDy=0;" edge="1" parent="1" source="qf5zw00lPG9wHRLytDWA-16" target="qf5zw00lPG9wHRLytDWA-14">
          <mxGeometry width="160" relative="1" as="geometry">
            <mxPoint x="210" y="615" as="sourcePoint" />
            <mxPoint x="323" y="624" as="targetPoint" />
          </mxGeometry>
        </mxCell>
        <mxCell id="qf5zw00lPG9wHRLytDWA-33" value="Powiadom o nowych ofertach" style="ellipse;whiteSpace=wrap;html=1;" vertex="1" parent="1">
          <mxGeometry x="235" y="370" width="100" height="60" as="geometry" />
        </mxCell>
        <mxCell id="qf5zw00lPG9wHRLytDWA-35" value="&amp;lt;&amp;lt;extend&amp;gt;&amp;gt;" style="endArrow=blockThin;endSize=16;endFill=1;html=1;rounded=0;dashed=1;exitX=0.2;exitY=0.884;exitDx=0;exitDy=0;entryX=0.971;entryY=0.275;entryDx=0;entryDy=0;exitPerimeter=0;entryPerimeter=0;" edge="1" parent="1" source="qf5zw00lPG9wHRLytDWA-33" target="qf5zw00lPG9wHRLytDWA-9">
          <mxGeometry width="160" relative="1" as="geometry">
            <mxPoint x="160" y="480" as="sourcePoint" />
            <mxPoint x="160" y="410" as="targetPoint" />
          </mxGeometry>
        </mxCell>
        <mxCell id="qf5zw00lPG9wHRLytDWA-36" value="&amp;lt;&amp;lt;extend&amp;gt;&amp;gt;" style="endArrow=blockThin;endSize=16;endFill=1;html=1;rounded=0;dashed=1;exitX=0.5;exitY=1;exitDx=0;exitDy=0;entryX=0.412;entryY=0.014;entryDx=0;entryDy=0;entryPerimeter=0;" edge="1" parent="1" source="qf5zw00lPG9wHRLytDWA-26" target="qf5zw00lPG9wHRLytDWA-16">
          <mxGeometry width="160" relative="1" as="geometry">
            <mxPoint x="322" y="539" as="sourcePoint" />
            <mxPoint x="211" y="606" as="targetPoint" />
          </mxGeometry>
        </mxCell>
        <mxCell id="qf5zw00lPG9wHRLytDWA-37" value="Google/Facebook" style="shape=umlActor;verticalLabelPosition=bottom;verticalAlign=top;html=1;" vertex="1" parent="1">
          <mxGeometry x="620" y="195" width="30" height="60" as="geometry" />
        </mxCell>
        <mxCell id="qf5zw00lPG9wHRLytDWA-38" style="rounded=0;orthogonalLoop=1;jettySize=auto;html=1;exitX=0.93;exitY=0.3;exitDx=0;exitDy=0;endArrow=none;endFill=0;entryX=0;entryY=0.3333333333333333;entryDx=0;entryDy=0;entryPerimeter=0;exitPerimeter=0;" edge="1" parent="1" source="qf5zw00lPG9wHRLytDWA-30" target="qf5zw00lPG9wHRLytDWA-37">
          <mxGeometry relative="1" as="geometry">
            <mxPoint x="330" y="310" as="sourcePoint" />
            <mxPoint x="670" y="320" as="targetPoint" />
          </mxGeometry>
        </mxCell>
      </root>
    </mxGraphModel>
  </diagram>
</mxfile>
